<svg width="123" height="40" viewBox="0 0 123 40" fill="none" xmlns="http://www.w3.org/2000/svg">
<path d="M23.6 10.7C21.4612 9.86908 19.1017 9.79897 16.9173 10.5014C14.7329 11.2039 12.8566 12.6362 11.603 14.558C10.3494 16.4798 9.79491 18.7743 10.0325 21.0565C10.27 23.3388 11.2852 25.4699 12.9077 27.0924C14.5301 28.7148 16.6612 29.73 18.9435 29.9676C21.2257 30.2051 23.5202 29.6506 25.442 28.397C27.3638 27.1434 28.7961 25.2671 29.4986 23.0827C30.201 20.8983 30.1309 18.5388 29.3 16.4" stroke="#E6E6E6" stroke-width="2" stroke-linecap="round" stroke-linejoin="round"/>
<path d="M20 22C21.1046 22 22 21.1046 22 20C22 18.8954 21.1046 18 20 18C18.8954 18 18 18.8954 18 20C18 21.1046 18.8954 22 20 22Z" stroke="#E6E6E6" stroke-width="2" stroke-linecap="round" stroke-linejoin="round"/>
<path d="M21.4 18.6L27 13" stroke="#E6E6E6" stroke-width="2" stroke-linecap="round" stroke-linejoin="round"/>
<path d="M46.375 25.5H43.233V15.3182H46.5142C47.5019 15.3182 48.3471 15.522 49.0497 15.9297C49.7524 16.334 50.291 16.9157 50.6655 17.6747C51.04 18.4304 51.2273 19.3352 51.2273 20.3892C51.2273 21.4498 51.0384 22.3629 50.6605 23.1286C50.2827 23.8909 49.7325 24.4775 49.0099 24.8885C48.2874 25.2962 47.4091 25.5 46.375 25.5ZM44.4659 24.4062H46.2955C47.1373 24.4062 47.835 24.2438 48.3885 23.919C48.942 23.5942 49.3546 23.1319 49.6264 22.532C49.8982 21.9321 50.0341 21.2178 50.0341 20.3892C50.0341 19.5672 49.8999 18.8596 49.6314 18.2663C49.3629 17.6697 48.9619 17.2124 48.4283 16.8942C47.8946 16.5727 47.2301 16.4119 46.4347 16.4119H44.4659V24.4062ZM55.3835 25.679C54.8996 25.679 54.4605 25.5878 54.0661 25.4055C53.6716 25.2199 53.3584 24.9531 53.1264 24.6051C52.8944 24.2538 52.7784 23.8295 52.7784 23.3324C52.7784 22.8949 52.8646 22.5402 53.0369 22.2685C53.2093 21.9934 53.4396 21.7779 53.728 21.6222C54.0163 21.4664 54.3345 21.3504 54.6825 21.2741C55.0339 21.1946 55.3868 21.1316 55.7415 21.0852C56.2055 21.0256 56.5817 20.9808 56.87 20.951C57.1617 20.9179 57.3738 20.8632 57.5064 20.7869C57.6423 20.7107 57.7102 20.5781 57.7102 20.3892V20.3494C57.7102 19.8589 57.576 19.4777 57.3075 19.206C57.0424 18.9342 56.6397 18.7983 56.0994 18.7983C55.5393 18.7983 55.1001 18.9209 54.782 19.1662C54.4638 19.4115 54.2401 19.6733 54.1108 19.9517L52.9972 19.554C53.196 19.09 53.4612 18.7287 53.7926 18.4702C54.1274 18.2083 54.492 18.026 54.8864 17.9233C55.2841 17.8172 55.6752 17.7642 56.0597 17.7642C56.3049 17.7642 56.5866 17.794 56.9048 17.8537C57.2263 17.91 57.5362 18.0277 57.8345 18.2067C58.1361 18.3857 58.3864 18.6558 58.5852 19.017C58.7841 19.3783 58.8835 19.8622 58.8835 20.4688V25.5H57.7102V24.4659H57.6506C57.571 24.6316 57.4384 24.8089 57.2528 24.9979C57.0672 25.1868 56.8203 25.3475 56.5121 25.4801C56.2038 25.6127 55.8277 25.679 55.3835 25.679ZM55.5625 24.625C56.0265 24.625 56.4176 24.5339 56.7358 24.3516C57.0573 24.1693 57.2992 23.9339 57.4616 23.6456C57.6274 23.3572 57.7102 23.054 57.7102 22.7358V21.6619C57.6605 21.7216 57.5511 21.7763 57.3821 21.826C57.2164 21.8724 57.0241 21.9138 56.8054 21.9503C56.59 21.9834 56.3795 22.0133 56.174 22.0398C55.9718 22.063 55.8078 22.0829 55.6818 22.0994C55.3769 22.1392 55.0919 22.2038 54.8267 22.2933C54.5649 22.3795 54.3527 22.5104 54.1903 22.6861C54.0313 22.8584 53.9517 23.0937 53.9517 23.392C53.9517 23.7997 54.1025 24.108 54.4041 24.3168C54.709 24.5223 55.0952 24.625 55.5625 24.625ZM66.4341 19.5739L65.3801 19.8722C65.3139 19.6965 65.2161 19.5258 65.0868 19.3601C64.9609 19.1911 64.7885 19.0518 64.5698 18.9425C64.351 18.8331 64.071 18.7784 63.7296 18.7784C63.2623 18.7784 62.8728 18.8861 62.5613 19.1016C62.253 19.3137 62.0989 19.5838 62.0989 19.9119C62.0989 20.2036 62.205 20.4339 62.4171 20.603C62.6292 20.772 62.9606 20.9129 63.4114 21.0256L64.5449 21.304C65.2277 21.4697 65.7364 21.7232 66.0712 22.0646C66.406 22.4027 66.5733 22.8385 66.5733 23.3722C66.5733 23.8097 66.4474 24.2008 66.1955 24.5455C65.9469 24.8902 65.5989 25.1619 65.1515 25.3608C64.704 25.5597 64.1837 25.6591 63.5904 25.6591C62.8115 25.6591 62.1668 25.4901 61.6564 25.152C61.146 24.8139 60.8229 24.3201 60.687 23.6705L61.8006 23.392C61.9067 23.803 62.1072 24.1113 62.4022 24.3168C62.7005 24.5223 63.0899 24.625 63.5705 24.625C64.1174 24.625 64.5516 24.509 64.873 24.277C65.1979 24.0417 65.3603 23.7599 65.3603 23.4318C65.3603 23.1667 65.2675 22.9446 65.0819 22.7656C64.8962 22.5833 64.6112 22.4474 64.2267 22.358L62.954 22.0597C62.2547 21.8939 61.7409 21.6371 61.4128 21.2891C61.088 20.9377 60.9256 20.4986 60.9256 19.9716C60.9256 19.5407 61.0466 19.1596 61.2885 18.8281C61.5338 18.4967 61.8669 18.2365 62.2878 18.0476C62.7121 17.8587 63.1926 17.7642 63.7296 17.7642C64.4853 17.7642 65.0785 17.9299 65.5094 18.2614C65.9436 18.5928 66.2518 19.0303 66.4341 19.5739ZM69.5128 20.9062V25.5H68.3395V15.3182H69.5128V19.0568H69.6122C69.7912 18.6624 70.0597 18.3492 70.4176 18.1172C70.7789 17.8819 71.2595 17.7642 71.8594 17.7642C72.3797 17.7642 72.8355 17.8686 73.2266 18.0774C73.6177 18.2829 73.9209 18.5994 74.1364 19.027C74.3551 19.4512 74.4645 19.9915 74.4645 20.6477V25.5H73.2912V20.7273C73.2912 20.1207 73.1338 19.6518 72.8189 19.3203C72.5073 18.9856 72.0748 18.8182 71.5213 18.8182C71.1368 18.8182 70.7921 18.8994 70.4872 19.0618C70.1856 19.2242 69.947 19.4612 69.7713 19.7727C69.599 20.0843 69.5128 20.4621 69.5128 20.9062ZM76.7701 25.5V15.3182H77.9434V19.0767H78.0428C78.129 18.9441 78.2483 18.7751 78.4007 18.5696C78.5565 18.3608 78.7786 18.1752 79.0669 18.0128C79.3586 17.8471 79.753 17.7642 80.2502 17.7642C80.8932 17.7642 81.4599 17.925 81.9505 18.2464C82.441 18.5679 82.8238 19.0237 83.0989 19.6136C83.374 20.2036 83.5115 20.8996 83.5115 21.7017C83.5115 22.5104 83.374 23.2114 83.0989 23.8047C82.8238 24.3946 82.4426 24.852 81.9554 25.1768C81.4682 25.4983 80.9064 25.6591 80.2701 25.6591C79.7795 25.6591 79.3868 25.5779 79.0918 25.4155C78.7968 25.2498 78.5698 25.0625 78.4107 24.8537C78.2516 24.6416 78.129 24.4659 78.0428 24.3267H77.9036V25.5H76.7701ZM77.9235 21.6818C77.9235 22.2585 78.008 22.7673 78.177 23.2081C78.3461 23.6456 78.593 23.9886 78.9178 24.2372C79.2426 24.4825 79.6403 24.6051 80.111 24.6051C80.6015 24.6051 81.0108 24.4759 81.339 24.2173C81.6704 23.9555 81.919 23.6042 82.0847 23.1634C82.2537 22.7192 82.3382 22.2254 82.3382 21.6818C82.3382 21.1449 82.2554 20.661 82.0897 20.2301C81.9273 19.7959 81.6803 19.4529 81.3489 19.201C81.0208 18.9458 80.6081 18.8182 80.111 18.8182C79.6337 18.8182 79.2327 18.9392 78.9078 19.1811C78.583 19.4197 78.3378 19.7545 78.1721 20.1854C78.0063 20.6129 77.9235 21.1117 77.9235 21.6818ZM88.4086 25.6591C87.7192 25.6591 87.1143 25.495 86.5939 25.1669C86.0769 24.8388 85.6725 24.3797 85.3809 23.7898C85.0925 23.1998 84.9483 22.5104 84.9483 21.7216C84.9483 20.9261 85.0925 20.2318 85.3809 19.6385C85.6725 19.0452 86.0769 18.5845 86.5939 18.2564C87.1143 17.9283 87.7192 17.7642 88.4086 17.7642C89.098 17.7642 89.7012 17.9283 90.2182 18.2564C90.7386 18.5845 91.1429 19.0452 91.4313 19.6385C91.723 20.2318 91.8688 20.9261 91.8688 21.7216C91.8688 22.5104 91.723 23.1998 91.4313 23.7898C91.1429 24.3797 90.7386 24.8388 90.2182 25.1669C89.7012 25.495 89.098 25.6591 88.4086 25.6591ZM88.4086 24.6051C88.9322 24.6051 89.3631 24.4709 89.7012 24.2024C90.0392 23.9339 90.2895 23.581 90.4519 23.1435C90.6143 22.706 90.6955 22.232 90.6955 21.7216C90.6955 21.2112 90.6143 20.7356 90.4519 20.2947C90.2895 19.8539 90.0392 19.4976 89.7012 19.2259C89.3631 18.9541 88.9322 18.8182 88.4086 18.8182C87.8849 18.8182 87.454 18.9541 87.1159 19.2259C86.7779 19.4976 86.5276 19.8539 86.3652 20.2947C86.2028 20.7356 86.1216 21.2112 86.1216 21.7216C86.1216 22.232 86.2028 22.706 86.3652 23.1435C86.5276 23.581 86.7779 23.9339 87.1159 24.2024C87.454 24.4709 87.8849 24.6051 88.4086 24.6051ZM95.907 25.679C95.4231 25.679 94.9839 25.5878 94.5895 25.4055C94.1951 25.2199 93.8819 24.9531 93.6499 24.6051C93.4179 24.2538 93.3018 23.8295 93.3018 23.3324C93.3018 22.8949 93.388 22.5402 93.5604 22.2685C93.7327 21.9934 93.9631 21.7779 94.2514 21.6222C94.5398 21.4664 94.858 21.3504 95.206 21.2741C95.5573 21.1946 95.9103 21.1316 96.2649 21.0852C96.7289 21.0256 97.1051 20.9808 97.3935 20.951C97.6851 20.9179 97.8973 20.8632 98.0298 20.7869C98.1657 20.7107 98.2337 20.5781 98.2337 20.3892V20.3494C98.2337 19.8589 98.0994 19.4777 97.831 19.206C97.5658 18.9342 97.1631 18.7983 96.6229 18.7983C96.0627 18.7983 95.6236 18.9209 95.3054 19.1662C94.9872 19.4115 94.7635 19.6733 94.6342 19.9517L93.5206 19.554C93.7195 19.09 93.9846 18.7287 94.3161 18.4702C94.6508 18.2083 95.0154 18.026 95.4098 17.9233C95.8075 17.8172 96.1986 17.7642 96.5831 17.7642C96.8284 17.7642 97.1101 17.794 97.4283 17.8537C97.7498 17.91 98.0597 18.0277 98.358 18.2067C98.6596 18.3857 98.9098 18.6558 99.1087 19.017C99.3075 19.3783 99.407 19.8622 99.407 20.4688V25.5H98.2337V24.4659H98.174C98.0945 24.6316 97.9619 24.8089 97.7763 24.9979C97.5907 25.1868 97.3438 25.3475 97.0355 25.4801C96.7273 25.6127 96.3511 25.679 95.907 25.679ZM96.0859 24.625C96.55 24.625 96.9411 24.5339 97.2592 24.3516C97.5807 24.1693 97.8227 23.9339 97.9851 23.6456C98.1508 23.3572 98.2337 23.054 98.2337 22.7358V21.6619C98.1839 21.7216 98.0746 21.7763 97.9055 21.826C97.7398 21.8724 97.5476 21.9138 97.3288 21.9503C97.1134 21.9834 96.9029 22.0133 96.6974 22.0398C96.4953 22.063 96.3312 22.0829 96.2053 22.0994C95.9003 22.1392 95.6153 22.2038 95.3501 22.2933C95.0883 22.3795 94.8762 22.5104 94.7138 22.6861C94.5547 22.8584 94.4751 23.0937 94.4751 23.392C94.4751 23.7997 94.6259 24.108 94.9276 24.3168C95.2325 24.5223 95.6186 24.625 96.0859 24.625ZM101.548 25.5V17.8636H102.682V19.017H102.762C102.901 18.6392 103.153 18.3326 103.517 18.0973C103.882 17.862 104.293 17.7443 104.75 17.7443C104.836 17.7443 104.944 17.746 105.073 17.7493C105.203 17.7526 105.3 17.7576 105.367 17.7642V18.9574C105.327 18.9474 105.236 18.9325 105.093 18.9126C104.954 18.8894 104.807 18.8778 104.651 18.8778C104.28 18.8778 103.948 18.9557 103.656 19.1115C103.368 19.264 103.139 19.4761 102.97 19.7479C102.805 20.0163 102.722 20.3229 102.722 20.6676V25.5H101.548ZM109.409 25.6591C108.772 25.6591 108.21 25.4983 107.723 25.1768C107.236 24.852 106.855 24.3946 106.58 23.8047C106.305 23.2114 106.167 22.5104 106.167 21.7017C106.167 20.8996 106.305 20.2036 106.58 19.6136C106.855 19.0237 107.238 18.5679 107.728 18.2464C108.219 17.925 108.785 17.7642 109.428 17.7642C109.926 17.7642 110.318 17.8471 110.607 18.0128C110.898 18.1752 111.12 18.3608 111.273 18.5696C111.429 18.7751 111.55 18.9441 111.636 19.0767H111.735V15.3182H112.909V25.5H111.775V24.3267H111.636C111.55 24.4659 111.427 24.6416 111.268 24.8537C111.109 25.0625 110.882 25.2498 110.587 25.4155C110.292 25.5779 109.899 25.6591 109.409 25.6591ZM109.568 24.6051C110.038 24.6051 110.436 24.4825 110.761 24.2372C111.086 23.9886 111.333 23.6456 111.502 23.2081C111.671 22.7673 111.755 22.2585 111.755 21.6818C111.755 21.1117 111.672 20.6129 111.507 20.1854C111.341 19.7545 111.096 19.4197 110.771 19.1811C110.446 18.9392 110.045 18.8182 109.568 18.8182C109.07 18.8182 108.656 18.9458 108.325 19.201C107.997 19.4529 107.75 19.7959 107.584 20.2301C107.422 20.661 107.34 21.1449 107.34 21.6818C107.34 22.2254 107.423 22.7192 107.589 23.1634C107.758 23.6042 108.007 23.9555 108.335 24.2173C108.666 24.4759 109.077 24.6051 109.568 24.6051Z" fill="white"/>
</svg>
