<svg width="123" height="40" viewBox="0 0 123 40" fill="none" xmlns="http://www.w3.org/2000/svg">
<path d="M23.6 10.7C21.4612 9.86908 19.1017 9.79897 16.9173 10.5014C14.7329 11.2039 12.8566 12.6362 11.603 14.558C10.3494 16.4798 9.79491 18.7743 10.0325 21.0565C10.27 23.3388 11.2852 25.4699 12.9077 27.0924C14.5301 28.7148 16.6612 29.73 18.9435 29.9676C21.2257 30.2051 23.5202 29.6506 25.442 28.397C27.3638 27.1434 28.7961 25.2671 29.4986 23.0827C30.201 20.8983 30.1309 18.5388 29.3 16.4" stroke="#E6E6E6" stroke-width="2" stroke-linecap="round" stroke-linejoin="round"/>
<path d="M20 22C21.1046 22 22 21.1046 22 20C22 18.8954 21.1046 18 20 18C18.8954 18 18 18.8954 18 20C18 21.1046 18.8954 22 20 22Z" stroke="#E6E6E6" stroke-width="2" stroke-linecap="round" stroke-linejoin="round"/>
<path d="M21.4 18.6L27 13" stroke="#E6E6E6" stroke-width="2" stroke-linecap="round" stroke-linejoin="round"/>
<path d="M43.204 25V15.06H46.396C47.9547 15.06 49.154 15.494 49.994 16.362C50.834 17.2207 51.254 18.448 51.254 20.044C51.254 21.6307 50.8387 22.8533 50.008 23.712C49.1867 24.5707 48.0107 25 46.48 25H43.204ZM44.716 23.614H46.396C48.5893 23.614 49.686 22.424 49.686 20.044C49.686 17.6453 48.5893 16.446 46.396 16.446H44.716V23.614ZM55.2565 25.168C54.4818 25.168 53.8611 24.9907 53.3945 24.636C52.9371 24.2813 52.7085 23.782 52.7085 23.138C52.7085 22.5033 52.8998 22.004 53.2825 21.64C53.6745 21.276 54.2765 21.0147 55.0885 20.856L57.6505 20.366C57.6505 19.218 57.1138 18.644 56.0405 18.644C55.5645 18.644 55.1911 18.7513 54.9205 18.966C54.6498 19.1807 54.4631 19.4887 54.3605 19.89L52.8345 19.792C52.9745 19.0453 53.3198 18.4573 53.8705 18.028C54.4305 17.5987 55.1538 17.384 56.0405 17.384C57.0485 17.384 57.8138 17.6547 58.3365 18.196C58.8685 18.728 59.1345 19.4793 59.1345 20.45V23.348C59.1345 23.5253 59.1625 23.6513 59.2185 23.726C59.2838 23.7913 59.3865 23.824 59.5265 23.824H59.7925V25C59.6618 25.028 59.4798 25.042 59.2465 25.042C58.8265 25.042 58.4905 24.9533 58.2385 24.776C57.9865 24.5987 57.8325 24.2907 57.7765 23.852C57.5898 24.244 57.2678 24.5613 56.8105 24.804C56.3531 25.0467 55.8351 25.168 55.2565 25.168ZM55.4945 23.992C56.1665 23.992 56.6938 23.8007 57.0765 23.418C57.4591 23.0353 57.6505 22.55 57.6505 21.962V21.486L55.4665 21.906C55.0185 21.99 54.7011 22.1253 54.5145 22.312C54.3371 22.4893 54.2485 22.718 54.2485 22.998C54.2485 23.3153 54.3558 23.5627 54.5705 23.74C54.7945 23.908 55.1025 23.992 55.4945 23.992ZM64.0008 25.168C62.9554 25.168 62.1528 24.9347 61.5928 24.468C61.0328 23.992 60.7248 23.3853 60.6688 22.648L62.1948 22.578C62.2601 22.9887 62.4328 23.3153 62.7128 23.558C63.0021 23.8007 63.4314 23.922 64.0008 23.922C64.4674 23.922 64.8361 23.8473 65.1068 23.698C65.3774 23.5487 65.5128 23.3107 65.5128 22.984C65.5128 22.8067 65.4661 22.6573 65.3728 22.536C65.2888 22.4053 65.1208 22.298 64.8688 22.214C64.6168 22.1207 64.2434 22.032 63.7488 21.948C63.0114 21.8173 62.4281 21.654 61.9988 21.458C61.5788 21.262 61.2801 21.024 61.1028 20.744C60.9348 20.4547 60.8508 20.1047 60.8508 19.694C60.8508 19.022 61.1028 18.4713 61.6068 18.042C62.1201 17.6033 62.8574 17.384 63.8188 17.384C64.4628 17.384 64.9994 17.496 65.4288 17.72C65.8674 17.9347 66.2128 18.2287 66.4648 18.602C66.7168 18.966 66.8754 19.3767 66.9408 19.834L65.4148 19.918C65.3494 19.5353 65.1814 19.2273 64.9108 18.994C64.6401 18.7513 64.2714 18.63 63.8048 18.63C63.3288 18.63 62.9741 18.7233 62.7408 18.91C62.5074 19.0967 62.3908 19.3393 62.3908 19.638C62.3908 19.9647 62.5121 20.212 62.7548 20.38C63.0068 20.5387 63.4361 20.6647 64.0428 20.758C64.8174 20.8887 65.4241 21.0473 65.8628 21.234C66.3014 21.4207 66.6094 21.6587 66.7868 21.948C66.9641 22.228 67.0528 22.5687 67.0528 22.97C67.0528 23.4367 66.9221 23.8333 66.6608 24.16C66.3994 24.4867 66.0401 24.7387 65.5828 24.916C65.1254 25.084 64.5981 25.168 64.0008 25.168ZM68.6946 25V15.06H70.1786V18.63C70.3746 18.2007 70.6639 17.888 71.0466 17.692C71.4386 17.4867 71.8773 17.384 72.3626 17.384C73.1746 17.384 73.7953 17.65 74.2246 18.182C74.6539 18.7047 74.8686 19.3813 74.8686 20.212V25H73.3846V20.604C73.3846 19.288 72.9133 18.63 71.9706 18.63C71.4199 18.63 70.9813 18.8027 70.6546 19.148C70.3373 19.484 70.1786 19.9787 70.1786 20.632V25H68.6946ZM80.6794 25.168C80.1567 25.168 79.6947 25.056 79.2934 24.832C78.9014 24.608 78.6027 24.2907 78.3974 23.88L78.3554 25H76.9694V15.06H78.4534V18.602C78.64 18.2753 78.9294 17.9907 79.3214 17.748C79.7134 17.5053 80.166 17.384 80.6794 17.384C81.3234 17.384 81.8834 17.5427 82.3594 17.86C82.8354 18.1773 83.1994 18.63 83.4514 19.218C83.7127 19.7967 83.8434 20.4827 83.8434 21.276C83.8434 22.0693 83.7127 22.76 83.4514 23.348C83.1994 23.9267 82.8354 24.3747 82.3594 24.692C81.8834 25.0093 81.3234 25.168 80.6794 25.168ZM80.4414 23.88C81.0107 23.88 81.4634 23.6467 81.7994 23.18C82.1354 22.7133 82.3034 22.0787 82.3034 21.276C82.3034 20.4547 82.1354 19.8153 81.7994 19.358C81.4727 18.9007 81.0247 18.672 80.4554 18.672C79.83 18.672 79.34 18.9007 78.9854 19.358C78.6307 19.8153 78.4534 20.4547 78.4534 21.276C78.4534 22.0787 78.626 22.7133 78.9714 23.18C79.326 23.6467 79.816 23.88 80.4414 23.88ZM88.5562 25.168C87.8469 25.168 87.2262 25.0093 86.6942 24.692C86.1622 24.3653 85.7516 23.9127 85.4622 23.334C85.1729 22.7553 85.0282 22.0693 85.0282 21.276C85.0282 20.4827 85.1729 19.7967 85.4622 19.218C85.7516 18.6393 86.1622 18.1913 86.6942 17.874C87.2262 17.5473 87.8469 17.384 88.5562 17.384C89.2656 17.384 89.8862 17.5473 90.4182 17.874C90.9502 18.1913 91.3609 18.6393 91.6502 19.218C91.9396 19.7967 92.0842 20.4827 92.0842 21.276C92.0842 22.0693 91.9396 22.7553 91.6502 23.334C91.3609 23.9127 90.9502 24.3653 90.4182 24.692C89.8862 25.0093 89.2656 25.168 88.5562 25.168ZM88.5562 23.88C89.1909 23.88 89.6809 23.6513 90.0262 23.194C90.3716 22.7367 90.5442 22.0973 90.5442 21.276C90.5442 20.464 90.3716 19.8293 90.0262 19.372C89.6809 18.9053 89.1909 18.672 88.5562 18.672C87.9309 18.672 87.4409 18.9053 87.0862 19.372C86.7409 19.8293 86.5682 20.464 86.5682 21.276C86.5682 22.0973 86.7409 22.7367 87.0862 23.194C87.4409 23.6513 87.9309 23.88 88.5562 23.88ZM95.9604 25.168C95.1857 25.168 94.565 24.9907 94.0984 24.636C93.641 24.2813 93.4124 23.782 93.4124 23.138C93.4124 22.5033 93.6037 22.004 93.9864 21.64C94.3784 21.276 94.9804 21.0147 95.7924 20.856L98.3544 20.366C98.3544 19.218 97.8177 18.644 96.7444 18.644C96.2684 18.644 95.895 18.7513 95.6244 18.966C95.3537 19.1807 95.167 19.4887 95.0644 19.89L93.5384 19.792C93.6784 19.0453 94.0237 18.4573 94.5744 18.028C95.1344 17.5987 95.8577 17.384 96.7444 17.384C97.7524 17.384 98.5177 17.6547 99.0404 18.196C99.5724 18.728 99.8384 19.4793 99.8384 20.45V23.348C99.8384 23.5253 99.8664 23.6513 99.9224 23.726C99.9877 23.7913 100.09 23.824 100.23 23.824H100.496V25C100.366 25.028 100.184 25.042 99.9504 25.042C99.5304 25.042 99.1944 24.9533 98.9424 24.776C98.6904 24.5987 98.5364 24.2907 98.4804 23.852C98.2937 24.244 97.9717 24.5613 97.5144 24.804C97.057 25.0467 96.539 25.168 95.9604 25.168ZM96.1984 23.992C96.8704 23.992 97.3977 23.8007 97.7804 23.418C98.163 23.0353 98.3544 22.55 98.3544 21.962V21.486L96.1704 21.906C95.7224 21.99 95.405 22.1253 95.2184 22.312C95.041 22.4893 94.9524 22.718 94.9524 22.998C94.9524 23.3153 95.0597 23.5627 95.2744 23.74C95.4984 23.908 95.8064 23.992 96.1984 23.992ZM101.889 25V17.552H103.247L103.289 18.966C103.429 18.4807 103.644 18.126 103.933 17.902C104.232 17.6687 104.61 17.552 105.067 17.552H105.781V18.882H105.067C104.498 18.882 104.073 19.022 103.793 19.302C103.513 19.582 103.373 20.016 103.373 20.604V25H101.889ZM109.625 25.168C108.99 25.168 108.439 25.0093 107.973 24.692C107.506 24.3747 107.147 23.9267 106.895 23.348C106.643 22.76 106.517 22.0693 106.517 21.276C106.517 20.4827 106.643 19.7967 106.895 19.218C107.147 18.63 107.506 18.1773 107.973 17.86C108.439 17.5427 108.99 17.384 109.625 17.384C110.138 17.384 110.595 17.4913 110.997 17.706C111.398 17.9207 111.701 18.2193 111.907 18.602V15.06H113.391V25H112.005L111.963 23.88C111.757 24.2907 111.445 24.608 111.025 24.832C110.614 25.056 110.147 25.168 109.625 25.168ZM110.017 23.88C110.623 23.88 111.09 23.6513 111.417 23.194C111.743 22.7367 111.907 22.0973 111.907 21.276C111.907 20.4453 111.743 19.806 111.417 19.358C111.09 18.9007 110.623 18.672 110.017 18.672C109.419 18.672 108.943 18.9053 108.589 19.372C108.234 19.8293 108.057 20.464 108.057 21.276C108.057 22.0693 108.234 22.704 108.589 23.18C108.943 23.6467 109.419 23.88 110.017 23.88Z" fill="white"/>
</svg>
