<svg width="64" height="64" viewBox="0 0 64 64" fill="none" xmlns="http://www.w3.org/2000/svg">
<rect x="4" y="4" width="56" height="56" rx="14.9333" fill="#333333"/>
<path d="M26.4002 20.7998C32.5858 20.7998 37.6002 25.8142 37.6002 31.9998C37.6002 38.1854 32.5858 43.1998 26.4002 43.1998C20.2146 43.1998 15.2002 38.1854 15.2002 31.9998C15.2002 25.8142 20.2146 20.7998 26.4002 20.7998Z" fill="white"/>
<path d="M39.095 21.7331C44.4548 21.7331 48.8002 26.3297 48.8002 31.9998C48.8002 37.6699 44.4548 42.2665 39.095 42.2665C38.3958 42.2664 37.7141 42.1874 37.057 42.0386C36.8823 41.999 36.824 41.7835 36.9467 41.6531C39.2741 39.178 40.7128 35.7668 40.7128 31.9998C40.7128 28.2325 39.2743 24.8208 36.9467 22.3456C36.824 22.2152 36.8823 21.9996 37.057 21.9601C37.7141 21.8115 38.3959 21.7332 39.095 21.7331Z" fill="white"/>
</svg>
