<svg width="40" height="40" viewBox="0 0 40 40" fill="none" xmlns="http://www.w3.org/2000/svg">
<rect x="2.5" y="2.5" width="35" height="35" rx="9.33333" fill="#333333"/>
<path d="M16.5 13C20.366 13 23.5 16.134 23.5 20C23.5 23.866 20.366 27 16.5 27C12.634 27 9.5 23.866 9.5 20C9.5 16.134 12.634 13 16.5 13Z" fill="white"/>
<path d="M24.4342 13.5833C27.7841 13.5833 30.5 16.4562 30.5 20C30.5 23.5438 27.7841 26.4167 24.4342 26.4167C23.9973 26.4166 23.5712 26.3673 23.1605 26.2743C23.0513 26.2495 23.0149 26.1148 23.0916 26.0333C24.5462 24.4864 25.4454 22.3544 25.4454 20C25.4454 17.6455 24.5463 15.5131 23.0916 13.9661C23.0149 13.8846 23.0513 13.7499 23.1605 13.7252C23.5712 13.6323 23.9973 13.5834 24.4342 13.5833Z" fill="white"/>
</svg>
